<svg xmlns="http://www.w3.org/2000/svg" version="1.1" xmlns:xlink="http://www.w3.org/1999/xlink" xmlns:svgjs="http://svgjs.com/svgjs" width="524.000000pt" height="506.000000pt"><svg version="1.0" xmlns="http://www.w3.org/2000/svg" width="524.000000pt" height="506.000000pt" viewBox="0 0 524.000000 506.000000" preserveAspectRatio="xMidYMid meet">

<g transform="translate(0.000000,506.000000) scale(0.100000,-0.100000)" fill="#000000" stroke="none">
<path d="M0 2530 l0 -2530 2620 0 2620 0 0 2530 0 2530 -2620 0 -2620 0 0
-2530z m3052 2106 c21 -8 50 -22 64 -32 39 -27 45 -31 83 -45 18 -7 51 -27 73
-46 31 -25 49 -33 81 -33 23 -1 60 -7 82 -15 22 -8 54 -15 70 -15 17 0 57 -15
90 -34 136 -75 161 -90 185 -111 36 -33 78 -51 132 -59 32 -5 71 -23 125 -59
138 -91 193 -140 283 -251 25 -31 65 -75 89 -98 42 -42 81 -104 81 -130 0 -17
34 -58 89 -111 42 -41 81 -103 81 -129 0 -7 12 -36 27 -63 14 -28 32 -72 39
-100 19 -76 41 -129 68 -170 27 -40 46 -94 46 -135 0 -14 7 -45 16 -70 19 -53
14 -132 -12 -181 -12 -25 -17 -61 -18 -144 -1 -101 -4 -114 -30 -160 -16 -27
-44 -80 -63 -117 -59 -114 -149 -178 -251 -178 -56 0 -132 27 -293 104 -50 23
-91 36 -118 36 -22 0 -60 6 -83 14 -24 8 -65 17 -93 20 -27 4 -81 11 -120 16
-160 21 -224 27 -305 25 -74 -1 -90 -5 -124 -28 -21 -15 -57 -32 -80 -38 -91
-24 -131 -42 -168 -75 -21 -18 -42 -34 -47 -34 -8 0 -76 -66 -203 -198 -67
-68 -68 -76 -51 -257 12 -119 8 -167 -14 -202 -19 -29 -10 -84 29 -177 17 -39
33 -89 38 -111 4 -22 16 -60 28 -85 26 -59 39 -119 56 -266 11 -96 21 -134 44
-180 16 -33 34 -75 40 -94 23 -79 44 -184 44 -224 0 -53 -37 -115 -70 -116
-12 0 -30 -5 -40 -11 -14 -9 -25 -8 -48 4 -16 8 -43 18 -60 21 -35 8 -46 34
-79 191 -10 44 -23 100 -30 125 -20 70 -42 167 -60 263 -8 48 -26 120 -39 160
-13 40 -27 110 -31 157 -4 47 -13 99 -21 115 -19 44 -54 234 -60 339 -4 50
-12 105 -19 121 -7 17 -16 54 -19 82 -3 29 -18 82 -34 118 -23 53 -37 71 -74
94 -25 16 -58 45 -74 65 -22 27 -37 36 -59 36 -16 1 -48 8 -70 16 -22 9 -60
20 -85 25 -25 5 -62 16 -83 24 -51 20 -127 19 -217 -5 -41 -11 -93 -20 -115
-20 -39 0 -132 -27 -175 -50 -12 -7 -36 -28 -53 -47 -39 -45 -167 -132 -194
-133 -16 0 -77 -38 -121 -76 -21 -17 -55 -41 -77 -53 -22 -12 -58 -33 -80 -46
-58 -35 -115 -41 -204 -20 -42 10 -93 26 -113 36 -39 20 -116 103 -154 166
-63 104 -68 117 -70 187 -1 55 -8 81 -33 130 -17 33 -40 94 -52 135 -32 111
-19 176 55 278 20 27 24 48 30 163 4 72 13 151 22 175 8 24 16 77 17 117 5
110 47 176 150 237 24 14 59 35 78 46 53 31 83 68 117 142 18 37 50 104 71
148 21 44 44 96 52 115 23 59 83 114 162 149 74 33 93 53 140 147 20 38 98
109 151 136 54 28 131 34 186 14 63 -22 103 -20 126 5 62 68 186 84 290 38 32
-15 78 -35 101 -44 25 -11 68 -45 107 -86 36 -38 71 -69 78 -69 13 0 20 15 53
115 9 28 24 66 33 85 19 40 167 187 197 196 11 3 57 24 101 45 66 32 99 42
169 49 48 5 90 11 93 15 10 10 87 4 124 -9z"></path>
</g>
</svg><style>@media (prefers-color-scheme: light) { :root { filter: contrast(1) brightness(0.7); } }
@media (prefers-color-scheme: dark) { :root { filter: invert(100%); } }
</style></svg>